<svg xmlns="http://www.w3.org/2000/svg" version="1.1" x="0px" y="0px" viewBox="0 0 612 612" xml:space="preserve" enable-background="new 0 0 612 612"><path d="M573.75 86.062H38.25C17.212 86.062 0 103.275 0 124.312v44.625h612v-44.625C612 103.275 594.788 86.062 573.75 86.062z"/><path d="M573.75 86.062H38.25C17.212 86.062 0 103.275 0 124.312v44.625h612v-44.625C612 103.275 594.788 86.062 573.75 86.062z"/><path d="M0 487.688c0 21.038 17.212 38.25 38.25 38.25h535.5c21.038 0 38.25-17.212 38.25-38.25v-242.25H0V487.688zM510 474.938h-19.125v-51H510V474.938zM541.875 474.938H522.75v-51h19.125V474.938zM573.75 474.938h-19.125v-51h19.125V474.938zM484.5 296.438c0-7.012 5.738-12.75 12.75-12.75H561c7.013 0 12.75 5.738 12.75 12.75v63.75c0 7.012-5.737 12.75-12.75 12.75h-63.75c-7.012 0-12.75-5.738-12.75-12.75V296.438zM452.625 423.938h19.125v51h-19.125V423.938zM420.75 423.938h19.125v51H420.75V423.938zM369.75 423.938h19.125v51H369.75V423.938zM337.875 423.938H357v51h-19.125V423.938zM299.625 423.938h19.125v51h-19.125V423.938zM267.75 423.938h19.125v51H267.75V423.938zM223.125 423.938h19.125v51h-19.125V423.938zM191.25 423.938h19.125v51H191.25V423.938zM153 423.938h19.125v51H153V423.938zM114.75 423.938h19.125v51H114.75V423.938zM82.875 423.938H102v51H82.875V423.938zM44.625 423.938H63.75v51H44.625V423.938z"/><path d="M0 487.688c0 21.038 17.212 38.25 38.25 38.25h535.5c21.038 0 38.25-17.212 38.25-38.25v-242.25H0V487.688zM510 474.938h-19.125v-51H510V474.938zM541.875 474.938H522.75v-51h19.125V474.938zM573.75 474.938h-19.125v-51h19.125V474.938zM484.5 296.438c0-7.012 5.738-12.75 12.75-12.75H561c7.013 0 12.75 5.738 12.75 12.75v63.75c0 7.012-5.737 12.75-12.75 12.75h-63.75c-7.012 0-12.75-5.738-12.75-12.75V296.438zM452.625 423.938h19.125v51h-19.125V423.938zM420.75 423.938h19.125v51H420.75V423.938zM369.75 423.938h19.125v51H369.75V423.938zM337.875 423.938H357v51h-19.125V423.938zM299.625 423.938h19.125v51h-19.125V423.938zM267.75 423.938h19.125v51H267.75V423.938zM223.125 423.938h19.125v51h-19.125V423.938zM191.25 423.938h19.125v51H191.25V423.938zM153 423.938h19.125v51H153V423.938zM114.75 423.938h19.125v51H114.75V423.938zM82.875 423.938H102v51H82.875V423.938zM44.625 423.938H63.75v51H44.625V423.938z"/></svg>