<svg xmlns="http://www.w3.org/2000/svg" xmlns:xlink="http://www.w3.org/1999/xlink" version="1.1" x="0px" y="0px" width="543.545px" height="543.545px" viewBox="0 0 543.545 543.545" xml:space="preserve" enable-background="new 0 0 543.545 543.545"><path d="M539.002 190.186c-4.686-3.128-11.017-1.856-14.145 2.829 -5.331 7.997-12.661 11.451-18.958 12.859 -0.055-11.879-5.808-24.276-16.341-34.809 -10.057-10.057-24.663-12.077-34.728-4.828 -7.527 5.433-13.457 17.483-5.406 33.599 5.012 10.03 14.273 18.061 25.548 22.767 -2.135 1.51-4.604 2.965-7.385 4.352 -6.113 3.06-12.369 4.889-18.428 5.95 -14.682-29.988-41.215-55.637-75.297-73.746 -12.45 29.192-41.433 49.715-75.119 49.715 -43.255 0-78.656-33.851-81.342-76.446 -4.229 0.408-8.391 0.864-12.464 1.394 -25.548-16.544-72.957-36.91-120.394-33.749 2.189 19.72 14.287 45.05 29.879 63.329 -30.212 18.666-49.688 44.146-59.493 73.644 -11.499 5.045-23.916 8.248-37.794 9.187 -10.146 0.694-17.81 9.398-17.088 19.543 1.876 26.152 9.622 70.699 40.296 82.498 5.746 2.209 14.913 3.516 25.827 4.209 13.001 21.244 32.083 39.938 55.638 54.754 -3.944 19.699-8.82 39.568-14.824 59.643 -2.598 8.67 3.971 17.395 13.036 17.395h57.134c5.65 0 10.805-3.461 12.77-8.758 4.495-12.145 8.296-24.576 11.526-37.238 16.952 3.381 34.741 5.195 53.094 5.195 21.346 0 41.929-2.441 61.309-6.949 -2.522 10.078-5.223 20.184-8.262 30.35 -2.604 8.676 3.964 17.4 13.028 17.4h57.134c5.651 0 10.806-3.461 12.771-8.758 10.18-27.492 16.919-56.387 21.046-86.334 31.362-27.404 50.375-63.07 50.375-102.107 0-11.982-1.85-23.638-5.229-34.844 6.568-1.462 13.314-3.686 19.992-7.031 11.05-5.521 18.006-11.886 22.345-18.047 17.605-0.36 33.347-8.67 42.778-22.814C544.958 199.645 543.687 193.314 539.002 190.186zM132.144 239.472c-9.391 0-17-7.609-17-17 0-9.391 7.609-17 17-17 9.391 0 17 7.609 17 17C149.144 231.863 141.534 239.472 132.144 239.472zM467.67 190.709c-2.074-4.141-2.033-7.126-0.918-7.929 0.441-0.32 1.115-0.51 1.938-0.51 1.707 0 4.08 0.85 6.439 3.216 6.182 6.188 9.854 13.137 10.315 19.271C477.448 202.1 470.825 197.013 467.67 190.709zM298.744 59.272c-37.557 0-68 30.443-68 68 0 37.556 30.443 68 68 68 37.557 0 68-30.444 68-68C366.744 89.716 336.301 59.272 298.744 59.272zM320.545 113.387c-3.543 1.197-7.419-0.714-8.609-4.291 -1.122-3.353-5.249-7.263-13.191-7.263 -6.365 0-10.118 4.196-10.554 8.351 -0.537 5.175 3.931 9.262 11.947 10.941 18.306 3.829 23.657 16.211 22.686 25.643 -0.979 9.493-8.004 17-17.279 19.543v5.665c0 3.76-3.039 6.8-6.8 6.8s-6.8-3.04-6.8-6.8v-5.393c-10.873-2.203-17.156-9.425-19.292-15.817 -1.197-3.563 0.728-7.418 4.292-8.608 3.569-1.184 7.419 0.728 8.608 4.291 1.122 3.353 5.243 7.263 13.192 7.263 6.364 0 10.118-4.196 10.554-8.351 0.537-5.168-3.931-9.255-11.948-10.935 -18.306-3.828-23.657-16.218-22.685-25.649 0.979-9.493 8.004-17 17.279-19.543v-5.657c0-3.761 3.039-6.8 6.8-6.8s6.8 3.04 6.8 6.8v5.386c10.873 2.203 17.149 9.418 19.292 15.816C326.032 108.341 324.102 112.19 320.545 113.387z"/></svg>