<?xml version="1.0" encoding="iso-8859-1"?>
<!-- Generator: Adobe Illustrator 18.1.1, SVG Export Plug-In . SVG Version: 6.00 Build 0)  -->
<svg version="1.1" id="Capa_1" xmlns="http://www.w3.org/2000/svg" xmlns:xlink="http://www.w3.org/1999/xlink" x="0px" y="0px"
	 viewBox="0 0 612 612" style="enable-background:new 0 0 612 612;" xml:space="preserve">
<g>
	<g>
		<path d="M102,164.042V47.812H0v116.229c0,30.747,22.714,55.896,51,55.896C79.28,219.938,102,194.788,102,164.042z"/>
		<path d="M178.5,219.938c28.28,0,51-25.149,51-55.896V47.812h-102v116.229C127.5,194.788,150.214,219.938,178.5,219.938z"/>
		<path d="M306,219.938c28.28,0,51-25.149,51-55.896V47.812H255v116.229C255,194.788,277.714,219.938,306,219.938z"/>
		<path d="M433.5,219.938c28.279,0,51-25.149,51-55.896V47.812h-102v116.229C382.5,194.788,405.214,219.938,433.5,219.938z"/>
		<path d="M510,47.812v116.229c0,30.74,22.714,55.896,51,55.896c28.279,0,51-25.149,51-55.896V47.812H510z"/>
		<path d="M497.25,208.992c-13.713,21.949-37.173,36.446-63.75,36.446s-50.037-14.497-63.75-36.446
			c-13.713,21.949-37.173,36.446-63.75,36.446s-50.037-14.497-63.75-36.446c-13.713,21.949-37.173,36.446-63.75,36.446
			s-50.037-14.497-63.75-36.446c-13.713,21.949-37.173,36.446-63.75,36.446v318.75h318.75v-216.75h127.5v216.75H561v-318.75
			C534.423,245.438,510.963,230.941,497.25,208.992z M306,462.188H114.75v-114.75H306V462.188z"/>
	</g>
</g>
<g>
</g>
<g>
</g>
<g>
</g>
<g>
</g>
<g>
</g>
<g>
</g>
<g>
</g>
<g>
</g>
<g>
</g>
<g>
</g>
<g>
</g>
<g>
</g>
<g>
</g>
<g>
</g>
<g>
</g>
</svg>
