<svg xmlns="http://www.w3.org/2000/svg" version="1.1" x="0px" y="0px" width="468.793px" height="468.793px" viewBox="0 0 468.793 468.793" xml:space="preserve" enable-background="new 0 0 468.793 468.793"><path d="M443.97 209.599c-4.75-5.725-11.803-9.037-19.24-9.037H143.265l-2.73-14.188c-1.742-9.059-8.332-16.421-17.143-19.154l-71.917-22.307c-13.186-4.09-27.194 3.283-31.284 16.472 -4.09 13.187 3.284 27.193 16.471 31.284l57.605 17.867 43.904 192.632c1.529 8.146 6.91 14.744 14.044 18.061 -0.212 1.713-0.333 3.453-0.333 5.221 0 23.35 18.994 42.344 42.342 42.344 23.348 0 42.342-18.994 42.342-42.344 0-0.975-0.045-1.938-0.109-2.895h66.845c-0.066 0.959-0.111 1.922-0.111 2.895 0 23.35 18.995 42.344 42.343 42.344 23.35 0 42.344-18.994 42.344-42.344 0-1.043-0.053-2.074-0.127-3.1 10.698-1.297 19.521-9.365 21.553-20.182l40-172.991C450.673 222.866 448.719 215.324 443.97 209.599zM194.224 447.07c-11.371 0-20.621-9.25-20.621-20.621s9.25-20.621 20.621-20.621 20.621 9.25 20.621 20.621S205.595 447.07 194.224 447.07zM345.532 447.07c-11.37 0-20.622-9.25-20.622-20.621s9.252-20.621 20.622-20.621 20.622 9.25 20.622 20.621S356.902 447.07 345.532 447.07zM360.063 361.288H188.728c-8.283 0-15-6.716-15-15s6.717-15 15-15h171.335c8.284 0 15 6.716 15 15S368.347 361.288 360.063 361.288zM360.063 281.288H188.728c-8.283 0-15-6.716-15-15s6.717-15 15-15h171.335c8.284 0 15 6.716 15 15S368.347 281.288 360.063 281.288z"/><path d="M280.734 176.804c2.643 2.643 6.105 3.964 9.569 3.964s6.927-1.321 9.568-3.964l54.866-54.866c3.87-3.871 5.029-9.692 2.936-14.749 -2.097-5.058-7.03-8.354-12.504-8.354h-34.866V20c0-11.046-8.954-20-20-20 -11.047 0-20 8.954-20 20v78.834h-34.866c-5.475 0-10.409 3.297-12.504 8.354 -2.095 5.057-0.938 10.878 2.935 14.749L280.734 176.804z"/></svg>